<svg xmlns="http://www.w3.org/2000/svg" width="87.794" height="56.18" viewBox="0 0 87.794 56.18"><defs><style>.a{fill:#3c3c3c;}</style></defs><g transform="translate(0 -92.184)"><g transform="translate(24.742 92.184)"><g transform="translate(0 0)"><path class="a" d="M178.573,123.833l-7.473-3.321a1.464,1.464,0,0,1-.869-1.337v-2.052a10.891,10.891,0,0,0,4.124-8.532V105.7a2.665,2.665,0,0,0,1.375-2.329v-.28a10.92,10.92,0,0,0-10.908-10.908h-2.749a10.92,10.92,0,0,0-10.908,10.908v2.544a2.7,2.7,0,0,0,1.026,2.161,2.508,2.508,0,0,0,.348.225v.568a10.891,10.891,0,0,0,4.124,8.532v2.052a1.464,1.464,0,0,1-.869,1.337l-7.473,3.321a6.79,6.79,0,0,0-4.029,6.2v17.045a1.286,1.286,0,1,0,2.572,0V130.032a4.207,4.207,0,0,1,.026-.442l3.444,3.444a2.82,2.82,0,0,1,.831,2.007v12.037a1.286,1.286,0,0,0,2.572,0V135.04a5.374,5.374,0,0,0-1.584-3.825l-4.105-4.105a4.2,4.2,0,0,1,1.318-.926l7.347-3.265,5.449,5.449v18.711a1.286,1.286,0,0,0,2.572,0V128.366l5.449-5.449,7.347,3.265a4.2,4.2,0,0,1,1.318.926l-4.105,4.105a5.374,5.374,0,0,0-1.584,3.825v12.037a1.286,1.286,0,1,0,2.572,0V135.04a2.819,2.819,0,0,1,.831-2.007L180,129.59a4.2,4.2,0,0,1,.026.442v17.045a1.286,1.286,0,1,0,2.572,0V130.032A6.791,6.791,0,0,0,178.573,123.833Zm-15.126,2.182-4.781-4.781a4.028,4.028,0,0,0,.569-2.06v-.523a10.9,10.9,0,0,0,8.424,0v.523a4.027,4.027,0,0,0,.569,2.06Zm0-9.089a8.345,8.345,0,0,1-8.336-8.336v-.578a7.6,7.6,0,0,0,2.336-1.516,1.286,1.286,0,0,0-1.745-1.89,4.619,4.619,0,0,1-1.91,1.14.208.208,0,0,1-.034.006.261.261,0,0,1-.022-.116v-2.544a8.345,8.345,0,0,1,8.336-8.336h2.749a8.345,8.345,0,0,1,8.336,8.336v.28a.083.083,0,0,1-.058.084c-7.7,1.521-11.564-1.346-12.867-2.649a1.286,1.286,0,1,0-1.819,1.819c3.994,3.994,9.821,4.066,13.369,3.639v2.324A8.345,8.345,0,0,1,163.447,116.926Z" transform="translate(-144.292 -92.184)"/></g></g><g transform="translate(0 99.057)"><path class="a" d="M23.19,150.046V147.3a9.531,9.531,0,0,0-4.371-8.008,5.409,5.409,0,1,0-10.326,0,9.531,9.531,0,0,0-4.37,8.008v2.749a9.528,9.528,0,0,0,4.124,7.844v2.828a1.455,1.455,0,0,1-.809,1.309L2.99,164.25A5.381,5.381,0,0,0,0,169.089v11.2a1.286,1.286,0,1,0,2.572,0V169.645l2.1,2.1a2.82,2.82,0,0,1,.831,2.007v6.539a1.286,1.286,0,1,0,2.572,0v-6.539a5.375,5.375,0,0,0-1.584-3.825L3.57,167.006c-.014-.014-.029-.026-.044-.039a2.868,2.868,0,0,1,.614-.415l4.448-2.224a4.1,4.1,0,0,0,.638-.4l3.144,3.144v13.213a1.286,1.286,0,0,0,2.572,0V167.073l3.144-3.144a4.079,4.079,0,0,0,.638.4l1.227.613a1.286,1.286,0,1,0,1.15-2.3l-1.227-.613a1.455,1.455,0,0,1-.809-1.309V157.89A9.528,9.528,0,0,0,23.19,150.046Zm-9.533-15.209a2.841,2.841,0,0,1,2.838,2.838,2.882,2.882,0,0,1-.045.507,9.533,9.533,0,0,0-5.581,0,2.82,2.82,0,0,1,2.789-3.343Zm0,5.5a6.969,6.969,0,0,1,6.961,6.961v.466a8.073,8.073,0,0,1-8.681-2.612A1.286,1.286,0,0,0,10,145.013a8.413,8.413,0,0,1-3.3,2.106A6.968,6.968,0,0,1,13.657,140.335Zm0,24.386-2.972-2.972a4.072,4.072,0,0,0,.134-1.032v-1.57a9.551,9.551,0,0,0,5.675,0v1.57a4.071,4.071,0,0,0,.134,1.032Zm0-7.715A6.969,6.969,0,0,1,6.7,150.046v-.266a10.312,10.312,0,0,0,4.132-2.059,11.6,11.6,0,0,0,2.385,1.736,10.229,10.229,0,0,0,4.915,1.269,10.775,10.775,0,0,0,2.479-.3A6.97,6.97,0,0,1,13.657,157.007Z" transform="translate(0 -132.265)"/></g><g transform="translate(61.855 101.806)"><g transform="translate(0 0)"><path class="a" d="M383.675,174.785l-7.2-3.6a1.455,1.455,0,0,1-.809-1.309v-1.823a8.14,8.14,0,0,0,2.749-6.1v-1.464h.088a1.286,1.286,0,0,0,1.286-1.286v-2.749a8.168,8.168,0,0,0-8.159-8.159h-2.749a8.168,8.168,0,0,0-8.159,8.159v2.749a1.286,1.286,0,0,0,1.286,1.286l.088,0v1.465a8.14,8.14,0,0,0,2.749,6.1v1.823a1.455,1.455,0,0,1-.809,1.309,1.286,1.286,0,1,0,1.15,2.3,4.1,4.1,0,0,0,.638-.4l3.144,3.144V193.57a1.286,1.286,0,1,0,2.572,0V176.233l3.144-3.144a4.079,4.079,0,0,0,.638.4l6.964,3.482-2.112,2.112a5.375,5.375,0,0,0-1.584,3.825v10.663a1.286,1.286,0,1,0,2.572,0V182.907A2.819,2.819,0,0,1,382,180.9l2-2a2.866,2.866,0,0,1,.094.724v13.946a1.286,1.286,0,1,0,2.572,0V179.623A5.38,5.38,0,0,0,383.675,174.785ZM363.3,157.655v-1.2h0a5.593,5.593,0,0,1,5.587-5.587h2.749a5.593,5.593,0,0,1,5.587,5.587v1.429a19.669,19.669,0,0,1-9-2.5,1.286,1.286,0,0,0-1.623.161A8.423,8.423,0,0,1,363.3,157.655Zm6.961,16.226-2.972-2.972a4.072,4.072,0,0,0,.134-1.032V169.6a8.152,8.152,0,0,0,5.675,0v.274a4.063,4.063,0,0,0,.134,1.032Zm0-6.34a5.593,5.593,0,0,1-5.587-5.587v-2.073h0a10.883,10.883,0,0,0,3.018-1.842,22.848,22.848,0,0,0,8.155,2.318v1.6A5.593,5.593,0,0,1,370.259,167.542Z" transform="translate(-360.726 -148.298)"/></g></g></g></svg>