<svg xmlns="http://www.w3.org/2000/svg" width="65.773" height="56.18" viewBox="0 0 65.773 56.18"><defs><style>.a{fill:#3c3c3c;}</style></defs><g transform="translate(0 -37.34)"><g transform="translate(0 37.34)"><path class="a" d="M65.677,54.321l-.044-.247c-.008-.038-.012-.076-.02-.113L61,42.821V37.34H4.7v5.481L.161,53.96c-.01.044-.016.088-.024.131l-.042.23A7.932,7.932,0,0,0,0,55.545a7.826,7.826,0,0,0,4.111,6.892V93.52H61.663V62.437a7.83,7.83,0,0,0,4.111-6.892A7.931,7.931,0,0,0,65.677,54.321Zm-3.1-.538H52.512L51.3,45.647h7.965ZM7.439,40.08H58.26v2.741H7.439Zm42.71,16.443.149.995L49.487,58.6a5.089,5.089,0,0,1-8.145,0l-.827-1.1-.048-.971Zm-9.817-2.74-.4-8.136h8.6l1.212,8.136Zm-2.609,2.74h0l.048.994-.813,1.08a5.09,5.09,0,0,1-8.146,0l-.831-1.109.048-.965h9.693Zm-9.554-2.74.411-8.136H37.19l.4,8.136Zm-12.122,0,1.2-8.136h8.595l-.414,8.136Zm9.237,2.74-.05,1-.8,1.069a5.089,5.089,0,0,1-8.145,0l-.791-1.053.151-1.021ZM6.506,45.647h7.967l-1.2,8.136H3.192ZM2.834,56.523h10.04l-.215,1.065L11.9,58.6a5.091,5.091,0,0,1-9.069-2.074ZM53.441,90.782H42.477V81.187h1.371a1.369,1.369,0,1,0,0-2.738H42.477V68.855H53.441Zm5.48,0h-2.74V66.117H39.737V90.782H6.851V63.314a7.83,7.83,0,0,0,7.242-3.071,7.831,7.831,0,0,0,12.529,0,7.829,7.829,0,0,0,12.527,0,7.831,7.831,0,0,0,12.529,0,7.83,7.83,0,0,0,7.242,3.071V90.782Zm-.98-30.148A5.05,5.05,0,0,1,53.87,58.6l-.8-1.058-.155-1.016H62.935A5.1,5.1,0,0,1,57.941,60.634Z" transform="translate(0 -37.34)"/></g><g transform="translate(9.591 66.117)"><path class="a" d="M74.656,261.348v19.181h27.407V261.348Zm24.665,16.443H77.4V264.086H99.321Z" transform="translate(-74.656 -261.348)"/></g><g transform="translate(27.395 75.707)"><path class="a" d="M217.361,336a1.36,1.36,0,0,0-.97.4l-2.74,2.742a1.369,1.369,0,0,0,1.937,1.935l2.74-2.738a1.371,1.371,0,0,0-.967-2.34Z" transform="translate(-213.25 -336.004)"/></g><g transform="translate(21.913 70.228)"><path class="a" d="M180.171,293.348a1.36,1.36,0,0,0-.97.4l-8.222,8.22a1.37,1.37,0,1,0,1.937,1.937l8.222-8.22a1.37,1.37,0,0,0-.967-2.338Z" transform="translate(-170.578 -293.348)"/></g></g></svg>